PathFileType	4	(X/Y/Z)	E:\Qualisys_Data\Carbon_Farble_Plate\Data\Amateur_Runner\S14\T3\S14T3V21_c3d.trc
DataRate	CameraRate	NumFrames	NumMarkers	Units	OrigDataRate	OrigDataStartFrame	OrigNumFrames
200.000000	200.000000	5	39	mm	200.000000	81	326
Frame#	Time	LSHO			RSHO			LICST			RICST			LASIS			LHEEL			RASIS			LTROC			RTROC			SACR			LTH1			LSK4			LTH2			LTH3			RHM5			LSK2			LTH4			RTH1			LTOE			RTH2			RTH3			RTH4			LLEP			RLEP			LSK1			LSK3			RSK1			LHM5			RSK2			LFT1			RSK3			RSK4			LLME			RLME			RTOE			RHEEL			RFT1			RFT2			LFT2			
		X1	Y1	Z1	X2	Y2	Z2	X3	Y3	Z3	X4	Y4	Z4	X5	Y5	Z5	X6	Y6	Z6	X7	Y7	Z7	X8	Y8	Z8	X9	Y9	Z9	X10	Y10	Z10	X11	Y11	Z11	X12	Y12	Z12	X13	Y13	Z13	X14	Y14	Z14	X15	Y15	Z15	X16	Y16	Z16	X17	Y17	Z17	X18	Y18	Z18	X19	Y19	Z19	X20	Y20	Z20	X21	Y21	Z21	X22	Y22	Z22	X23	Y23	Z23	X24	Y24	Z24	X25	Y25	Z25	X26	Y26	Z26	X27	Y27	Z27	X28	Y28	Z28	X29	Y29	Z29	X30	Y30	Z30	X31	Y31	Z31	X32	Y32	Z32	X33	Y33	Z33	X34	Y34	Z34	X35	Y35	Z35	X36	Y36	Z36	X37	Y37	Z37	X38	Y38	Z38	X39	Y39	Z39	

82	0.405	-1977.17919921875	1493.15673828125	-513.9129028320312	-1903.4169921875	1473.868896484375	-233.669677734375	-1989.016235351562	1027.001586914062	-483.7576599121094	-1962.795288085938	1030.759643554688	-208.9323120117188	-1949.59619140625	973.1968383789062	-456.8807373046875	-1830.200439453125	115.1359252929688	-377.8897705078125	-1946.441650390625	983.9100952148438	-225.0231628417969	-2070.930419921875	911.8070068359376	-508.3070983886719	-2114.897705078125	939.3253173828124	-173.248779296875	-2116.278076171875	1037.286010742188	-350.9723815917969	-1910.760375976562	707.7545166015625	-501.1028442382812	-1874.946411132812	335.9037780761719	-451.5764465332031	-1979.087768554688	675.7859497070312	-477.978515625	-1859.4296875	627.90576171875	-473.8483276367188	-2611.08251953125	245.3672943115234	-191.3268737792969	-1894.274291992188	433.1604614257812	-466.5815124511719	-1930.042724609375	592.5830688476562	-458.9223022460938	-2092.953857421875	694.713623046875	-177.5102081298828	-1588.013305664062	213.0257263183594	-417.0216674804688	-2159.471923828125	730.6476440429688	-171.5459899902344	-2137.122314453125	607.3461303710938	-201.2318420410156	-2211.3212890625	646.5659790039062	-191.743408203125	-1869.949951171875	537.488525390625	-469.8935852050781	-2225.573486328125	576.8047485351562	-190.7450256347656	-1814.471313476562	449.190185546875	-466.4854125976562	-1795.800537109375	349.7909851074219	-455.0889282226562	-2319.896728515625	488.4780883789062	-194.9195861816406	-1647.176025390625	168.0357971191406	-470.5015258789062	-2367.879638671875	558.7200317382812	-205.5403137207031	-1804.843383789062	93.3140869140625	-352.3929443359375	-2409.128173828125	435.1742858886719	-209.5578155517578	-2446.0771484375	503.8639831542969	-219.7527770996094	-1789.427124023438	165.6734466552734	-435.4057922363281	-2574.191650390625	387.170166015625	-240.7523040771484	-2575.789306640625	168.8170318603516	-241.8588409423828	-2602.472412109375	421.3507080078125	-301.1063232421875	-2624.10986328125	397.0531311035156	-333.038330078125	-2629.286865234375	420.6338806152344	-285.103515625	-1816.171875	87.11284637451172	-405.1535949707031
83	0.41	-1956.38427734375	1491.030151367188	-515.0406494140625	-1881.83056640625	1472.41455078125	-234.7831115722656	-1969.455322265625	1024.187133789062	-482.6571044921875	-1941.5166015625	1029.818237304688	-209.09912109375	-1927.83447265625	971.841552734375	-455.9999389648438	-1801.20556640625	111.9125671386719	-376.6211853027344	-1924.98876953125	982.6965942382812	-225.0483245849609	-2049.665283203125	909.5455932617188	-507.6928405761719	-2093.373291015625	938.0440673828124	-173.8876495361328	-2094.727294921875	1035.338989257812	-351.0342712402344	-1893.653686523438	704.0507202148438	-502.8037109375	-1852.1640625	331.8723754882812	-449.755615234375	-1960.451416015625	672.6689453125	-477.0799255371094	-1841.770629882812	623.4373779296875	-473.7860717773438	-2593.02783203125	250.9631195068359	-191.3091735839844	-1873.623657226562	427.7994995117188	-465.0281066894531	-1913.41357421875	589.25927734375	-458.2491149902344	-2071.41064453125	692.9864501953125	-177.9980926513672	-1562.001953125	216.1338806152344	-418.1189880371094	-2138.032470703125	729.6865234375	-171.5587768554688	-2115.04833984375	605.4093017578125	-200.8936309814453	-2190.107177734375	644.7190551757812	-191.1656188964844	-1852.030029296875	532.4782104492188	-469.9395446777344	-2203.40869140625	575.2374267578125	-190.7524566650391	-1793.163452148438	446.1883544921875	-465.2685852050781	-1774.013549804688	348.1063842773438	-455.3994445800781	-2299.43896484375	488.1614074707031	-194.7803192138672	-1620.717041015625	168.9551544189453	-471.6805419921875	-2346.1005859375	559.4412841796875	-205.7764587402344	-1775.245727539062	90.54471588134766	-351.6783447265625	-2388.86865234375	435.8937683105469	-210.0609741210938	-2424.927734375	506.1295166015625	-220.6699371337891	-1762.016479492188	163.2670288085938	-435.1393127441406	-2553.5380859375	391.3582763671875	-241.6139373779297	-2558.929931640625	173.2722320556641	-241.0776672363281	-2582.45703125	425.8744201660156	-302.6214904785156	-2603.66162109375	400.8166198730469	-333.5115966796875	-2608.351318359375	425.2191467285156	-286.2702941894531	-1787.238525390625	84.78500366210938	-404.1710205078125
84	0.415	-1936.798583984375	1488.880981445312	-517.1321411132812	-1860.322143554688	1470.79638671875	-235.6343536376953	-1944.816528320312	1022.055358886719	-483.0530090332031	-1920.174438476562	1028.170288085938	-208.9563293457031	-1905.666381835938	969.1694946289062	-456.2004089355469	-1773.859130859375	109.4935455322266	-375.3995666503906	-1903.665771484375	981.2357177734376	-224.1800994873047	-2027.679931640625	906.6275634765624	-507.6575622558594	-2071.1064453125	936.0353393554688	-173.2649536132812	-2074.22998046875	1033.725952148438	-351.9609069824219	-1875.601806640625	699.932861328125	-503.5050048828125	-1830.362670898438	328.4080810546875	-448.776611328125	-1943.654907226562	669.4644165039062	-477.0899658203125	-1824.587768554688	618.624267578125	-474.0488586425781	-2574.37158203125	255.5863952636719	-191.1163482666016	-1853.856811523438	424.0091857910156	-464.2232971191406	-1896.523315429688	585.6140747070312	-457.6778564453125	-2048.465576171875	691.290771484375	-178.2773742675781	-1536.799926757812	217.5724487304688	-419.5810546875	-2118.982421875	729.905029296875	-170.8013458251953	-2092.114501953125	603.5681762695312	-200.7682647705078	-2166.920654296875	642.10498046875	-190.9566650390625	-1834.600708007812	528.8245849609375	-468.9967956542969	-2179.9794921875	572.9442138671875	-190.2705230712891	-1774.103149414062	443.4899597167969	-465.4882507324219	-1751.240600585938	345.2807922363281	-455.0510864257812	-2277.331787109375	487.9420776367188	-194.8740386962891	-1595.994384765625	169.8174133300781	-472.4957885742188	-2323.0390625	559.436279296875	-205.3153228759766	-1746.916137695312	88.27210235595703	-350.6727294921875	-2367.534423828125	436.854736328125	-210.3486175537109	-2402.493408203125	507.2987670898438	-220.7382659912109	-1736.534790039062	161.5775909423828	-434.4131469726562	-2532.627685546875	394.9358215332031	-242.1701507568359	-2541.474609375	177.345703125	-240.8325042724609	-2561.822021484375	429.516845703125	-303.6857604980469	-2583.33154296875	404.8890686035156	-334.6333618164062	-2587.65087890625	429.2825622558594	-287.2228698730469	-1760.2275390625	82.22328186035156	-403.8510437011719
85	0.42	-1915.481201171875	1485.447143554688	-517.5236206054688	-1838.875366210938	1468.634887695312	-236.5786437988281	-1923.478149414062	1019.935485839844	-483.6771850585938	-1899.0859375	1026.661376953125	-208.2669372558594	-1884.498657226562	966.673095703125	-455.7814025878906	-1748.758056640625	106.8835678100586	-374.1613464355469	-1882.350708007812	980.0127563476562	-224.5833129882812	-2006.012817382812	904.08740234375	-507.38671875	-2049.908935546875	934.3696899414062	-173.2003479003906	-2052.95556640625	1031.487915039062	-352.3661499023438	-1857.98974609375	695.5599975585938	-504.2762451171875	-1808.482666015625	324.3702392578125	-448.1849365234375	-1925.962280273438	665.6893920898438	-476.54150390625	-1807.006713867188	614.7225341796875	-474.2064208984375	-2555.59912109375	259.5682678222656	-191.8962097167969	-1834.378051757812	420.2345275878906	-463.4332275390625	-1878.7724609375	581.9363403320312	-456.5308532714844	-2025.369995117188	689.3660888671875	-178.1352233886719	-1513.287719726562	218.4193420410156	-421.2464294433594	-2092.250244140625	724.7036743164062	-172.3102722167969	-2068.825927734375	600.8905029296875	-200.8703155517578	-2143.94189453125	639.8158569335938	-191.1338958740234	-1816.853759765625	526.356201171875	-468.3547058105469	-2156.886474609375	570.1384887695312	-190.3176727294922	-1754.18408203125	440.6163330078125	-465.1771240234375	-1729.646484375	342.7494201660156	-454.2442626953125	-2255.408935546875	486.1396179199219	-195.0322570800781	-1572.296875	169.3885955810547	-472.7448425292969	-2299.65234375	558.978271484375	-204.92431640625	-1721.27978515625	85.74956512451172	-349.4627380371094	-2346.129150390625	437.5325317382812	-211.0503997802734	-2379.372802734375	508.1029663085938	-219.2213745117188	-1712.069213867188	159.2185821533203	-433.3034362792969	-2511.363037109375	397.8004760742188	-242.8621673583984	-2522.958251953125	181.109375	-241.1554412841797	-2541.23583984375	433.2953491210938	-305.2763061523438	-2562.895751953125	408.9068603515625	-335.73779296875	-2567.0	433.7552795410156	-288.5375061035156	-1733.6865234375	79.01895904541016	-401.9154052734375
86	0.425	-1895.2158203125	1482.604858398438	-519.2333374023438	-1817.544677734375	1465.844970703125	-237.76123046875	-1901.88232421875	1017.273864746094	-483.3619995117188	-1878.681762695312	1024.898193359375	-208.5027008056641	-1862.99169921875	963.8734741210938	-456.0663146972656	-1723.86181640625	104.0253295898438	-372.2116394042969	-1861.318237304688	978.2326049804688	-224.1142272949219	-1984.572875976562	901.2493286132812	-507.4403686523438	-2028.795288085938	932.8645629882812	-173.6727294921875	-2031.866577148438	1029.009521484375	-353.1718444824219	-1840.230834960938	691.3558349609375	-506.3190002441406	-1787.096435546875	320.8479919433594	-447.5945129394531	-1908.938232421875	662.6650390625	-475.699951171875	-1789.030395507812	610.3506469726562	-474.8032531738281	-2535.881591796875	263.6316223144531	-192.3225555419922	-1813.972045898438	416.29052734375	-463.0978088378906	-1860.787841796875	578.0349731445312	-455.2787780761719	-2002.438598632812	686.6668090820312	-177.9987030029297	-1490.388793945312	218.0636596679688	-421.7425537109375	-2069.25341796875	722.1732788085938	-170.8777923583984	-2044.860595703125	598.196044921875	-200.4826354980469	-2120.957275390625	636.9177856445312	-190.8217926025391	-1798.56201171875	523.0658569335938	-467.7145080566406	-2132.218017578125	566.9622192382812	-189.9588165283203	-1734.632690429688	437.8387756347656	-464.8055114746094	-1709.098754882812	340.5611877441406	-453.6092224121094	-2233.167724609375	484.6163024902344	-195.1832733154297	-1549.917236328125	168.4296569824219	-473.5362854003906	-2275.88818359375	558.2188110351562	-204.634521484375	-1696.035888671875	83.89384460449219	-347.8950805664062	-2323.92236328125	437.2389831542969	-211.7114868164062	-2356.71826171875	508.3078002929688	-219.4872741699219	-1689.173828125	156.8744812011719	-432.4995727539062	-2489.742919921875	401.0727844238281	-243.5341339111328	-2503.89794921875	184.5801391601562	-241.5314178466797	-2520.176513671875	436.5762939453125	-306.6582946777344	-2541.9150390625	412.6261291503906	-336.8205871582031	-2546.158203125	437.6767883300781	-290.7212219238281	-1710.11962890625	77.1025390625	-400.3689575195312
